<?xml version="1.0" encoding="UTF-8" standalone="no"?>
<!DOCTYPE svg PUBLIC "-//W3C//DTD SVG 1.1//EN" "http://www.w3.org/Graphics/SVG/1.1/DTD/svg11.dtd">
<svg width="100%" height="100%" viewBox="0 0 310 266" version="1.1" xmlns="http://www.w3.org/2000/svg" xmlns:xlink="http://www.w3.org/1999/xlink" xml:space="preserve" xmlns:serif="http://www.serif.com/" style="fill-rule:evenodd;clip-rule:evenodd;stroke-linejoin:round;stroke-miterlimit:2;">
    <g transform="matrix(1,0,0,1,-3347,-4476.89)">
        <g transform="matrix(5.41093,0,0,8.81123,-3554.47,-1343.16)">
            <g transform="matrix(0.184811,0,0,0.113492,839.499,-75.615)">
                <path d="M2543,6666C2541.5,6667.12 2506.16,6732.58 2518,6745C2526.84,6754.27 2557,6753 2559,6749C2560.84,6745.31 2551.58,6742.52 2555,6719C2558.42,6695.48 2564,6673 2564,6673C2570.22,6685.61 2573.3,6700.42 2571,6719C2573.76,6733.63 2581.05,6741.13 2600,6740C2613.54,6721.46 2606,6695 2597,6676L2580,6650C2589.18,6635.32 2591.02,6618.51 2587,6600C2622.98,6613.21 2645,6591 2645,6581C2645,6577.11 2635,6576 2635,6576L2636,6555C2645.56,6562.25 2656.03,6568.5 2669,6572C2659.95,6556.08 2651.62,6540.21 2647,6526L2661,6546C2661.51,6532.16 2658.51,6518.84 2643,6505C2653.96,6511.51 2660.45,6515.47 2668,6523C2654.95,6483.96 2611.78,6475.15 2567,6501C2565,6496 2565,6495 2561,6492C2555.21,6490.04 2548.29,6500.3 2542,6515C2537.87,6524.66 2538,6537 2538,6551C2538,6560.65 2539,6604 2542,6613C2535,6612 2529,6587 2529,6572C2529,6566.56 2527.21,6523.37 2499,6518C2490.16,6516.32 2503.5,6544.65 2502,6546C2500.11,6542.45 2474.87,6516.15 2468,6526C2465.64,6529.39 2475.98,6559.74 2501,6576C2491.55,6567.46 2481.54,6564.29 2471,6566C2469.56,6569.48 2469.83,6572.39 2471,6575C2444.39,6562.7 2404.18,6567.61 2391,6615C2396.06,6608.93 2401.55,6603.05 2409,6598C2404.96,6609.33 2397.82,6625.55 2396,6638C2392.88,6659.32 2389.45,6680.72 2379,6701C2382.88,6701.45 2391.76,6692.2 2397,6682C2394.38,6703.6 2383.43,6718.76 2359,6730C2370.58,6734.03 2383.51,6728.51 2394,6720L2383,6732C2398.13,6728.33 2412.51,6717.3 2423,6697C2423.44,6706.66 2420.11,6717.89 2417,6727C2427.31,6718.87 2437.78,6702.67 2441,6673C2442.6,6674.76 2443.76,6677.7 2447,6680C2446.25,6658.92 2448.27,6639.03 2457,6624C2462.82,6613.99 2469.81,6605.34 2485,6607C2473.9,6622.48 2472.76,6635.63 2481,6658C2476.81,6659.81 2472.46,6660.37 2468,6660C2466.28,6658.97 2438.99,6715.39 2441,6727C2442.89,6737.88 2463.22,6748.57 2475,6732C2474.22,6736.27 2475.24,6740.27 2478,6744C2478.53,6747.27 2512.06,6753.1 2514,6744C2514.21,6743 2503,6712 2510,6693C2512.1,6687.29 2515.45,6674.05 2521,6666C2528.33,6667.26 2535.67,6667.19 2543,6666Z" style="fill:rgb(207,156,255);"/>
            </g>
        </g>
    </g>
</svg>
